<svg width="52" height="52" viewBox="0 0 52 52" fill="none" xmlns="http://www.w3.org/2000/svg">
<rect width="52" height="52" rx="10" fill="#FF006D"/>
<path d="M27.9256 20H12.0579C11.476 20 11 20.476 11 21.0579V42.2149C11 42.7967 11.476 43.2727 12.0579 43.2727H27.9256C28.5074 43.2727 28.9835 42.7967 28.9835 42.2149V21.0579C28.9835 20.476 28.5074 20 27.9256 20ZM26.8678 41.157H13.1157V22.1157H26.8678V41.157ZM15.6281 34.1488C15.6281 33.6463 16.0512 33.2231 16.5537 33.2231H19.6744C20.1769 33.2231 20.6 33.6463 20.6 34.1488C20.6 34.6512 20.1769 35.0744 19.6744 35.0744H16.5537C16.0248 35.0744 15.6281 34.6512 15.6281 34.1488ZM15.7603 29.9174C15.7603 29.4149 16.1835 28.9917 16.686 28.9917H22.9802C23.4826 28.9917 23.9058 29.4149 23.9058 29.9174C23.9058 30.4198 23.5091 30.843 22.9802 30.843H16.686C16.1835 30.843 15.7603 30.4198 15.7603 29.9174ZM15.7603 25.9504C15.7603 25.4479 16.1835 25.0248 16.686 25.0248H22.9802C23.4826 25.0248 23.9058 25.4479 23.9058 25.9504C23.9058 26.4529 23.5091 26.876 22.9802 26.876H16.686C16.1835 26.876 15.7603 26.4529 15.7603 25.9504ZM23.6149 33.5669C23.7736 33.7256 23.8793 33.9636 23.8793 34.2281C23.8793 34.4661 23.7736 34.7041 23.6149 34.8893C23.4562 35.0744 23.1917 35.1537 22.9537 35.1537C22.7157 35.1537 22.4777 35.0479 22.2926 34.8893C22.1074 34.7306 22.0281 34.4926 22.0281 34.2281C22.0281 33.9901 22.1339 33.7521 22.2926 33.5669C22.6364 33.2231 23.2711 33.2231 23.6149 33.5669Z" fill="white"/>
<path d="M40.9999 14.928C40.9999 15.4768 40.5608 15.916 40.0119 15.916H36.0599V19.6484C36.0599 20.1973 35.6208 20.6364 35.0719 20.6364C34.523 20.6364 34.0839 20.1973 34.0839 19.6484V15.916H30.3515C29.8026 15.916 29.3635 15.4768 29.3635 14.928C29.3635 14.3791 29.8026 13.94 30.3515 13.94H34.0839V9.98799C34.0839 9.43911 34.523 9 35.0719 9C35.6208 9 36.0599 9.43911 36.0599 9.98799V13.94H40.0119C40.5608 13.94 40.9999 14.3791 40.9999 14.928Z" fill="white"/>
</svg>
