<svg width="52" height="52" viewBox="0 0 52 52" fill="none" xmlns="http://www.w3.org/2000/svg">
<rect width="52" height="52" rx="10" fill="#FF006D"/>
<path d="M31.2848 16.9274C31.599 17.1058 31.971 17.1527 32.3196 17.0578C32.6683 16.963 32.9653 16.7341 33.1458 16.4211C33.2952 16.1574 33.5278 15.9509 33.8073 15.8337C34.0867 15.7165 34.3971 15.6954 34.6898 15.7737C34.9826 15.852 35.241 16.0252 35.4247 16.2662C35.6084 16.5071 35.7069 16.8023 35.7048 17.1053C35.7048 17.4682 35.5606 17.8163 35.304 18.0729C35.0473 18.3295 34.6993 18.4737 34.3363 18.4737C33.9734 18.4737 33.6253 18.6179 33.3687 18.8745C33.1121 19.1311 32.9679 19.4792 32.9679 19.8421C32.9679 20.205 33.1121 20.5531 33.3687 20.8097C33.6253 21.0664 33.9734 21.2105 34.3363 21.2105C35.0568 21.2101 35.7645 21.02 36.3883 20.6594C37.0121 20.2988 37.53 19.7803 37.89 19.1562C38.2499 18.532 38.4393 17.8241 38.439 17.1036C38.4387 16.3831 38.2488 15.6754 37.8883 15.0515C37.5279 14.4276 37.0095 13.9096 36.3855 13.5495C35.7614 13.1894 35.0536 12.9999 34.333 13C33.6125 13.0001 32.9047 13.1899 32.2808 13.5502C31.6568 13.9105 31.1387 14.4286 30.7784 15.0526C30.688 15.2088 30.6293 15.3814 30.6058 15.5603C30.5822 15.7393 30.5944 15.9211 30.6414 16.0954C30.6885 16.2696 30.7696 16.4329 30.88 16.5756C30.9904 16.7184 31.128 16.838 31.2848 16.9274ZM37.169 26.6842C36.8098 26.6376 36.4467 26.7353 36.1594 26.9559C35.8721 27.1765 35.684 27.502 35.6363 27.8611C35.3492 30.1807 34.2237 32.3154 32.472 33.8629C30.7203 35.4105 28.4632 36.2642 26.1258 36.2632H18.4763L19.3658 35.3737C19.6207 35.1173 19.7637 34.7705 19.7637 34.4089C19.7637 34.0474 19.6207 33.7006 19.3658 33.4442C18.0315 32.1047 17.1235 30.4003 16.7561 28.5456C16.3887 26.691 16.5783 24.7691 17.3011 23.0221C18.0239 21.275 19.2476 19.781 20.818 18.7281C22.3883 17.6752 24.2351 17.1105 26.1258 17.1053C26.4887 17.1053 26.8368 16.9611 27.0934 16.7045C27.3501 16.4478 27.4942 16.0998 27.4942 15.7368C27.4942 15.3739 27.3501 15.0259 27.0934 14.7692C26.8368 14.5126 26.4887 14.3684 26.1258 14.3684C23.8121 14.3781 21.548 15.0393 19.5927 16.2763C17.6374 17.5133 16.0701 19.276 15.0704 21.3626C14.0707 23.4492 13.679 25.7751 13.9401 28.0741C14.2012 30.373 15.1046 32.5519 16.5469 34.3611L14.2069 36.66C14.017 36.8524 13.8884 37.0968 13.8372 37.3623C13.7861 37.6277 13.8147 37.9024 13.9195 38.1516C14.0222 38.4015 14.1965 38.6154 14.4205 38.7664C14.6446 38.9174 14.9083 38.9987 15.1784 39H26.1258C29.1246 39.0004 32.0206 37.9066 34.2704 35.9239C36.5202 33.9411 37.9693 31.2056 38.3458 28.2305C38.3708 28.0516 38.3602 27.8695 38.3145 27.6947C38.2688 27.52 38.1889 27.356 38.0795 27.2122C37.9701 27.0685 37.8333 26.9478 37.677 26.8572C37.5208 26.7665 37.3481 26.7078 37.169 26.6842V26.6842ZM34.8563 22.6747C34.6072 22.5645 34.3308 22.5312 34.0627 22.5789L33.8163 22.6611L33.57 22.7842L33.3648 22.9621C33.2417 23.0882 33.1441 23.2369 33.0774 23.4C32.9965 23.5707 32.9589 23.7587 32.9679 23.9474C32.9639 24.1299 32.9965 24.3113 33.0637 24.4811C33.1345 24.6453 33.2368 24.7941 33.3648 24.9189C33.4926 25.0458 33.6443 25.1461 33.811 25.2142C33.9777 25.2823 34.1562 25.3168 34.3363 25.3158C34.6993 25.3158 35.0473 25.1716 35.304 24.915C35.5606 24.6584 35.7048 24.3103 35.7048 23.9474C35.7094 23.7679 35.6719 23.5898 35.5953 23.4274C35.4482 23.0985 35.1852 22.8355 34.8563 22.6884V22.6747Z" fill="white"/>
</svg>
